<?xml version="1.0" standalone="no"?>
<!DOCTYPE svg PUBLIC "-//W3C//DTD SVG 20010904//EN"
 "http://www.w3.org/TR/2001/REC-SVG-20010904/DTD/svg10.dtd">
<svg version="1.0" xmlns="http://www.w3.org/2000/svg"
 width="601.000000pt" height="214.000000pt" viewBox="0 0 601.000000 214.000000"
 preserveAspectRatio="xMidYMid meet">

<g transform="translate(0.000000,214.000000) scale(0.100000,-0.100000)"
fill="#000000" stroke="none">
<path d="M4806 1979 c-32 -5 -64 -13 -71 -19 -6 -5 -30 -16 -51 -24 -176 -62
-361 -295 -384 -481 -4 -33 -13 -103 -20 -155 -13 -92 -12 -97 13 -175 31 -97
49 -137 106 -235 52 -89 215 -253 270 -271 19 -6 49 -20 67 -31 92 -54 363
-91 443 -61 18 7 51 13 72 13 47 0 81 13 107 40 l20 21 98 -101 c55 -56 105
-114 113 -128 7 -15 23 -38 35 -51 l21 -24 -265 7 c-146 4 -296 8 -335 10
-124 7 -635 7 -1174 2 -289 -3 -530 -2 -535 3 -6 4 -72 4 -146 0 -135 -8 -483
-4 -595 6 -33 3 -231 5 -440 5 -209 -1 -764 -2 -1232 -3 -977 -2 -878 9 -882
-102 -4 -101 -4 -106 15 -126 16 -17 26 -19 64 -14 25 4 77 6 115 5 39 -1 88
-1 110 -1 121 2 600 -1 605 -4 20 -13 814 -19 1365 -10 467 7 1490 2 1780 -9
189 -7 408 -8 1164 -2 598 5 603 5 626 26 22 20 45 102 45 158 0 15 -19 46
-49 81 -26 31 -55 70 -64 86 -8 17 -25 39 -37 50 -12 11 -36 40 -53 65 -16 25
-42 59 -58 75 -15 17 -43 56 -63 88 l-35 58 22 37 c12 20 36 58 54 83 54 76
99 186 111 274 28 198 24 249 -23 345 -13 25 -26 59 -29 75 -7 31 -28 62 -108
164 -27 33 -48 64 -48 69 0 15 -68 72 -85 72 -8 0 -15 4 -15 9 0 15 -53 44
-105 57 -27 7 -83 22 -122 33 -60 17 -98 21 -215 20 -79 -1 -169 -5 -202 -10z
m343 -230 c87 -28 119 -43 166 -77 27 -20 56 -44 63 -54 7 -9 33 -38 57 -64
29 -30 51 -65 62 -98 9 -28 23 -68 31 -88 38 -95 -24 -346 -107 -431 -17 -17
-19 -16 -63 23 -25 22 -62 64 -81 93 -20 30 -43 59 -51 66 -9 8 -16 19 -16 27
0 18 -37 37 -45 24 -4 -6 -12 -10 -18 -9 -19 4 -110 -11 -134 -21 -23 -10 -33
-50 -12 -50 24 0 59 -52 145 -217 28 -52 35 -76 27 -84 -6 -6 -53 -11 -109
-12 -114 -1 -200 18 -291 63 -62 31 -143 111 -143 141 0 9 -18 42 -39 74 -22
32 -49 89 -62 127 -18 58 -20 75 -11 106 6 20 18 64 26 97 43 178 84 230 236
301 52 25 106 51 120 58 31 18 199 21 249 5z"/>
<path d="M370 1970 c-146 -17 -160 -38 -179 -265 -7 -83 -13 -172 -14 -200 -2
-137 6 -635 12 -742 6 -112 9 -124 36 -163 16 -23 34 -44 40 -45 59 -16 210
-27 395 -30 124 -2 250 -5 281 -8 80 -6 89 3 96 106 4 60 2 95 -7 117 l-13 32
-91 -6 c-50 -3 -156 -8 -236 -11 -80 -3 -157 -8 -172 -10 -14 -3 -38 -1 -52 5
l-26 9 6 108 c3 60 10 129 15 154 6 25 12 69 14 97 2 29 6 56 9 61 4 5 48 10
99 10 388 3 407 8 443 116 34 105 61 405 43 500 -8 45 -74 115 -109 115 -11 0
-20 4 -20 9 0 16 -42 22 -190 27 -80 3 -167 9 -193 14 -53 11 -90 11 -187 0z
m487 -252 c24 -25 16 -239 -10 -265 -13 -13 -362 -21 -375 -9 -3 4 -8 72 -10
151 l-3 145 192 -5 c145 -3 195 -7 206 -17z"/>
<path d="M3289 1957 c-14 -25 -23 -328 -22 -742 0 -381 5 -517 22 -603 15 -73
16 -75 71 -67 26 4 65 2 88 -4 22 -6 150 -13 284 -16 133 -2 266 -6 293 -9 80
-6 91 6 98 109 5 68 3 94 -9 117 l-15 29 -87 -5 c-48 -3 -155 -8 -237 -11 -83
-4 -157 -7 -165 -7 -8 -1 -29 0 -47 0 l-32 2 4 135 c3 75 7 141 11 146 3 6 9
43 13 82 l6 72 115 2 c63 2 167 5 230 9 158 8 153 8 170 1 34 -15 44 8 46 115
2 57 -1 109 -5 117 -7 11 -61 13 -288 12 l-280 -1 -6 142 c-3 81 -2 147 3 152
8 8 348 -7 425 -19 17 -2 57 -7 91 -11 l61 -7 16 40 c9 22 16 58 15 80 0 22 3
50 7 61 3 12 4 31 0 41 -5 17 -15 20 -81 20 -41 0 -79 3 -84 6 -5 3 -72 8
-147 10 -76 3 -163 8 -193 12 -30 4 -124 8 -208 8 -136 0 -155 -2 -163 -18z"/>
<path d="M2705 1962 c-2 -2 -63 -5 -137 -6 -238 -5 -366 -17 -374 -35 -4 -9
-8 -52 -10 -96 -7 -172 -13 -266 -18 -273 -4 -7 -7 -544 -4 -762 1 -60 20
-214 30 -233 8 -15 17 -16 58 -11 27 3 70 1 97 -5 26 -6 165 -13 308 -16 143
-2 287 -6 320 -8 92 -7 101 3 110 117 6 81 4 98 -11 123 -10 15 -18 29 -19 30
0 1 -41 -2 -90 -7 -50 -5 -169 -11 -265 -15 -96 -3 -187 -8 -202 -11 -15 -3
-36 -3 -47 1 -18 5 -19 14 -15 128 3 67 9 138 14 157 5 19 12 62 15 94 3 33 7
61 9 63 2 2 57 5 122 7 65 2 130 6 144 10 14 3 72 7 129 10 108 5 122 10 122
42 0 10 -1 55 -1 100 0 116 0 116 -140 103 -170 -16 -346 -25 -372 -19 -21 5
-22 11 -25 142 -3 118 -1 136 13 142 15 6 361 8 523 3 73 -2 75 -1 92 28 11
20 18 58 21 115 l3 85 -198 0 c-109 0 -200 -1 -202 -3z"/>
<path d="M1948 1945 c-2 -3 -38 -7 -79 -9 -41 -2 -85 -6 -99 -10 -14 -3 -51
-9 -83 -13 -32 -3 -60 -10 -63 -14 -3 -5 -13 -9 -23 -9 -9 0 -30 -14 -47 -31
-16 -17 -38 -35 -48 -41 -17 -9 -18 -7 -13 28 8 48 -11 90 -39 86 -10 -1 -54
-3 -96 -3 -115 -1 -121 -8 -118 -140 1 -57 1 -140 0 -184 -1 -44 -1 -229 0
-411 0 -191 -4 -375 -10 -435 -19 -167 -20 -237 -5 -249 9 -8 31 -8 76 0 81
13 146 13 154 0 10 -16 51 -11 77 10 23 17 25 25 21 67 -3 27 -11 73 -18 103
-15 58 -31 365 -28 510 4 209 90 420 170 420 13 0 37 7 53 15 63 33 220 72
240 60 5 -3 22 1 38 9 31 16 34 25 48 153 6 61 6 61 -24 77 -30 16 -73 21 -84
11z"/>
</g>
</svg>
